<svg width="27" height="27" viewBox="0 0 27 27" fill="none" xmlns="http://www.w3.org/2000/svg">
<g clip-path="url(#clip0_4_23)">
<path d="M3.375 3.375L23.625 23.625" stroke="#132B50" stroke-width="1.6875" stroke-linecap="round" stroke-linejoin="round"/>
<path d="M11.907 11.9104C11.4848 12.3323 11.2475 12.9046 11.2473 13.5014C11.2471 14.0983 11.484 14.6708 11.9059 15.093C12.3278 15.5152 12.9001 15.7525 13.497 15.7527C14.0938 15.7529 14.6663 15.516 15.0885 15.0941" stroke="#132B50" stroke-width="1.6875" stroke-linecap="round" stroke-linejoin="round"/>
<path d="M19.5266 19.5176C17.6918 20.7551 15.6848 21.375 13.5 21.375C9 21.375 5.25038 18.7504 2.25 13.5C3.79012 10.8056 5.52712 8.80313 7.461 7.49138M10.5334 6.03563C11.498 5.75969 12.4967 5.62145 13.5 5.62501C18 5.62501 21.7496 8.24963 24.75 13.5C23.8748 15.0311 22.9365 16.3395 21.9341 17.424L10.5334 6.03563Z" stroke="#132B50" stroke-width="1.6875" stroke-linecap="round" stroke-linejoin="round"/>
</g>
<defs>
<clipPath id="clip0_4_23">
<rect width="27" height="27" fill="white"/>
</clipPath>
</defs>
</svg>
